<svg width="160" height="160" viewBox="0 0 160 160" fill="none" xmlns="http://www.w3.org/2000/svg" shape-rendering="crispEdges">
  <g fill="#0057FF">
    <rect x="48" y="24" width="24" height="8"/>
    <rect x="40" y="32" width="72" height="8"/>
    <rect x="40" y="40" width="80" height="8"/>
    <rect x="40" y="48" width="16" height="8"/>
    <rect x="104" y="48" width="24" height="8"/>
    <rect x="40" y="56" width="16" height="8"/>
    <rect x="104" y="56" width="24" height="8"/>
    <rect x="40" y="64" width="80" height="8"/>
    <rect x="40" y="72" width="80" height="8"/>
    <rect x="48" y="80" width="64" height="8"/>
    <rect x="56" y="88" width="48" height="8"/>
    <rect x="64" y="96" width="32" height="8"/>
    <rect x="72" y="104" width="16" height="8"/>
  </g>

  <g fill="#FFE500">
    <rect x="104" y="48" width="16" height="8"/>
    <rect x="112" y="56" width="8" height="8"/>
    <rect x="64" y="56" width="8" height="8"/>
    <rect x="88" y="56" width="8" height="8"/>
  </g>
</svg>
